<svg xmlns="http://www.w3.org/2000/svg" viewBox="0 0 1024 1024" role="img" aria-labelledby="title desc">
  <title id="title">Vault app icon</title>
  <desc id="desc">A terracotta folded V surrounding a keyhole on a warm ivory background.</desc>
  <defs>
    <mask id="keyhole-cutout">
      <rect width="1024" height="1024" fill="white"/>
      <circle cx="512" cy="606" r="52" fill="black"/>
      <path d="M484 640 H540 L564 746 H460 Z" fill="black"/>
    </mask>
  </defs>
  <rect width="1024" height="1024" fill="#faf9f5"/>
  <path fill="#c96442" mask="url(#keyhole-cutout)" d="
    M176 206
    Q176 184 200 184
    H346
    Q374 184 386 210
    L512 596
    L512 914
    L372 792
    Q356 778 350 758
    Z

    M848 206
    Q848 184 824 184
    H678
    Q650 184 638 210
    L512 596
    L512 914
    L652 792
    Q668 778 674 758
    Z"/>
  <path d="M183 199 L369 292 L411 421" fill="none" stroke="#faf9f5" stroke-width="7" stroke-linecap="round" opacity="0.75"/>
  <path d="M841 199 L655 292 L613 421" fill="none" stroke="#faf9f5" stroke-width="7" stroke-linecap="round" opacity="0.75"/>
</svg>
